<?xml version="1.0" encoding="UTF-8" standalone="no"?>
<!DOCTYPE svg PUBLIC "-//W3C//DTD SVG 1.1//EN"
 "http://www.w3.org/Graphics/SVG/1.1/DTD/svg11.dtd">
<!-- Generated by graphviz version 8.1.0 (20230707.0739)
 -->
<!-- Title: G Pages: 1 -->
<svg width="1243pt" height="427pt"
 viewBox="0.00 0.00 1242.54 427.30" xmlns="http://www.w3.org/2000/svg" xmlns:xlink="http://www.w3.org/1999/xlink">
<g id="graph0" class="graph" transform="scale(1 1) rotate(0) translate(4 423.3)">
<title>G</title>
<polygon fill="white" stroke="none" points="-4,4 -4,-423.3 1238.54,-423.3 1238.54,4 -4,4"/>
<!-- nodo0 -->
<g id="node1" class="node">
<title>nodo0</title>
<ellipse fill="none" stroke="black" cx="273.96" cy="-374.23" rx="45.08" ry="45.08"/>
<text text-anchor="middle" x="273.96" y="-368.8" font-family="Times New Roman,serif" font-size="14.00">Mensajes</text>
</g>
<!-- nodoNombre1 -->
<g id="node2" class="node">
<title>nodoNombre1</title>
<ellipse fill="none" stroke="black" cx="367.96" cy="-374.23" rx="30.61" ry="30.61"/>
<text text-anchor="middle" x="367.96" y="-368.8" font-family="Times New Roman,serif" font-size="14.00">msg: </text>
</g>
<!-- nodoSistema1 -->
<g id="node3" class="node">
<title>nodoSistema1</title>
<ellipse fill="none" stroke="black" cx="104.96" cy="-187.2" rx="104.96" ry="104.96"/>
<text text-anchor="middle" x="104.96" y="-181.77" font-family="Times New Roman,serif" font-size="14.00">Sistema de drones: &#160;SD1 </text>
</g>
<!-- nodoNombre1&#45;&gt;nodoSistema1 -->
<g id="edge1" class="edge">
<title>nodoNombre1&#45;&gt;nodoSistema1</title>
<path fill="none" stroke="black" d="M349.96,-348.97C343.66,-341.79 336.1,-334.44 327.96,-329.15 285.18,-301.34 262.93,-319.01 218.96,-293.15 207.7,-286.53 196.62,-278.65 186.04,-270.23"/>
<polygon fill="black" stroke="black" points="188.63,-267 178.68,-263.37 184.19,-272.41 188.63,-267"/>
</g>
<!-- nodoDron1 -->
<g id="node4" class="node">
<title>nodoDron1</title>
<ellipse fill="none" stroke="black" cx="268.96" cy="-187.2" rx="40.58" ry="40.58"/>
<text text-anchor="middle" x="268.96" y="-181.77" font-family="Times New Roman,serif" font-size="14.00">DronX: </text>
</g>
<!-- nodoNombre1&#45;&gt;nodoDron1 -->
<g id="edge2" class="edge">
<title>nodoNombre1&#45;&gt;nodoDron1</title>
<path fill="none" stroke="black" d="M351.16,-348.09C341.05,-332.54 328.2,-312.02 317.96,-293.15 307.75,-274.36 297.57,-253.08 289.16,-234.61"/>
<polygon fill="black" stroke="black" points="291.98,-233.35 284.68,-225.68 285.6,-236.23 291.98,-233.35"/>
</g>
<!-- nodoDron2 -->
<g id="node6" class="node">
<title>nodoDron2</title>
<ellipse fill="none" stroke="black" cx="367.96" cy="-187.2" rx="40.58" ry="40.58"/>
<text text-anchor="middle" x="367.96" y="-181.77" font-family="Times New Roman,serif" font-size="14.00">DronY: </text>
</g>
<!-- nodoNombre1&#45;&gt;nodoDron2 -->
<g id="edge4" class="edge">
<title>nodoNombre1&#45;&gt;nodoDron2</title>
<path fill="none" stroke="black" d="M367.96,-343.5C367.96,-315.41 367.96,-272.71 367.96,-239.19"/>
<polygon fill="black" stroke="black" points="371.46,-239.21 367.96,-229.21 364.46,-239.21 371.46,-239.21"/>
</g>
<!-- nodoDron3 -->
<g id="node8" class="node">
<title>nodoDron3</title>
<ellipse fill="none" stroke="black" cx="465.96" cy="-187.2" rx="39.59" ry="39.59"/>
<text text-anchor="middle" x="465.96" y="-181.77" font-family="Times New Roman,serif" font-size="14.00">DronZ: </text>
</g>
<!-- nodoNombre1&#45;&gt;nodoDron3 -->
<g id="edge6" class="edge">
<title>nodoNombre1&#45;&gt;nodoDron3</title>
<path fill="none" stroke="black" d="M384.8,-348.12C394.93,-332.58 407.78,-312.06 417.96,-293.15 428.13,-274.24 438.19,-252.77 446.46,-234.2"/>
<polygon fill="black" stroke="black" points="450.03,-235.78 450.86,-225.22 443.62,-232.96 450.03,-235.78"/>
</g>
<!-- nodoDron4 -->
<g id="node10" class="node">
<title>nodoDron4</title>
<ellipse fill="none" stroke="black" cx="563.96" cy="-187.2" rx="40.58" ry="40.58"/>
<text text-anchor="middle" x="563.96" y="-181.77" font-family="Times New Roman,serif" font-size="14.00">DronY: </text>
</g>
<!-- nodoNombre1&#45;&gt;nodoDron4 -->
<g id="edge8" class="edge">
<title>nodoNombre1&#45;&gt;nodoDron4</title>
<path fill="none" stroke="black" d="M397.14,-363.64C429.6,-351.68 481.82,-328.41 514.96,-293.15 529.9,-277.25 540.98,-255.98 548.78,-236.74"/>
<polygon fill="black" stroke="black" points="552.36,-238.2 552.68,-227.61 545.82,-235.68 552.36,-238.2"/>
</g>
<!-- nodoAltura1 -->
<g id="node5" class="node">
<title>nodoAltura1</title>
<ellipse fill="none" stroke="black" cx="268.96" cy="-22.62" rx="22.62" ry="22.62"/>
<text text-anchor="middle" x="268.96" y="-17.2" font-family="Times New Roman,serif" font-size="14.00"> &#160;2 </text>
</g>
<!-- nodoDron1&#45;&gt;nodoAltura1 -->
<g id="edge3" class="edge">
<title>nodoDron1&#45;&gt;nodoAltura1</title>
<path fill="none" stroke="black" d="M268.96,-146.43C268.96,-118.75 268.96,-82.29 268.96,-56.31"/>
<polygon fill="black" stroke="black" points="272.46,-56.52 268.96,-46.52 265.46,-56.52 272.46,-56.52"/>
</g>
<!-- nodoAltura2 -->
<g id="node7" class="node">
<title>nodoAltura2</title>
<ellipse fill="none" stroke="black" cx="367.96" cy="-22.62" rx="22.62" ry="22.62"/>
<text text-anchor="middle" x="367.96" y="-17.2" font-family="Times New Roman,serif" font-size="14.00"> &#160;3 </text>
</g>
<!-- nodoDron2&#45;&gt;nodoAltura2 -->
<g id="edge5" class="edge">
<title>nodoDron2&#45;&gt;nodoAltura2</title>
<path fill="none" stroke="black" d="M367.96,-146.43C367.96,-118.75 367.96,-82.29 367.96,-56.31"/>
<polygon fill="black" stroke="black" points="371.46,-56.52 367.96,-46.52 364.46,-56.52 371.46,-56.52"/>
</g>
<!-- nodoAltura3 -->
<g id="node9" class="node">
<title>nodoAltura3</title>
<ellipse fill="none" stroke="black" cx="465.96" cy="-22.62" rx="22.62" ry="22.62"/>
<text text-anchor="middle" x="465.96" y="-17.2" font-family="Times New Roman,serif" font-size="14.00"> &#160;2 </text>
</g>
<!-- nodoDron3&#45;&gt;nodoAltura3 -->
<g id="edge7" class="edge">
<title>nodoDron3&#45;&gt;nodoAltura3</title>
<path fill="none" stroke="black" d="M465.96,-147.26C465.96,-119.43 465.96,-82.43 465.96,-56.18"/>
<polygon fill="black" stroke="black" points="469.46,-56.29 465.96,-46.29 462.46,-56.29 469.46,-56.29"/>
</g>
<!-- nodoAltura4 -->
<g id="node11" class="node">
<title>nodoAltura4</title>
<ellipse fill="none" stroke="black" cx="563.96" cy="-22.62" rx="22.62" ry="22.62"/>
<text text-anchor="middle" x="563.96" y="-17.2" font-family="Times New Roman,serif" font-size="14.00"> &#160;1 </text>
</g>
<!-- nodoDron4&#45;&gt;nodoAltura4 -->
<g id="edge9" class="edge">
<title>nodoDron4&#45;&gt;nodoAltura4</title>
<path fill="none" stroke="black" d="M563.96,-146.43C563.96,-118.75 563.96,-82.29 563.96,-56.31"/>
<polygon fill="black" stroke="black" points="567.46,-56.52 563.96,-46.52 560.46,-56.52 567.46,-56.52"/>
</g>
<!-- nodoNombre2 -->
<g id="node12" class="node">
<title>nodoNombre2</title>
<ellipse fill="none" stroke="black" cx="997.96" cy="-374.23" rx="35.1" ry="35.1"/>
<text text-anchor="middle" x="997.96" y="-368.8" font-family="Times New Roman,serif" font-size="14.00">msg2: </text>
</g>
<!-- nodoSistema2 -->
<g id="node13" class="node">
<title>nodoSistema2</title>
<ellipse fill="none" stroke="black" cx="728.96" cy="-187.2" rx="105.95" ry="105.95"/>
<text text-anchor="middle" x="728.96" y="-181.77" font-family="Times New Roman,serif" font-size="14.00">Sistema de drones: &#160;SDF </text>
</g>
<!-- nodoNombre2&#45;&gt;nodoSistema2 -->
<g id="edge10" class="edge">
<title>nodoNombre2&#45;&gt;nodoSistema2</title>
<path fill="none" stroke="black" d="M965.6,-359.4C933.44,-344.98 883.36,-320.67 843.96,-293.15 833.38,-285.76 822.74,-277.48 812.45,-268.89"/>
<polygon fill="black" stroke="black" points="815.16,-265.75 805.27,-261.95 810.63,-271.09 815.16,-265.75"/>
</g>
<!-- nodoDron5 -->
<g id="node14" class="node">
<title>nodoDron5</title>
<ellipse fill="none" stroke="black" cx="895.96" cy="-187.2" rx="43.08" ry="43.08"/>
<text text-anchor="middle" x="895.96" y="-181.77" font-family="Times New Roman,serif" font-size="14.00">DronW: </text>
</g>
<!-- nodoNombre2&#45;&gt;nodoDron5 -->
<g id="edge11" class="edge">
<title>nodoNombre2&#45;&gt;nodoDron5</title>
<path fill="none" stroke="black" d="M978.97,-344.35C969.32,-329.3 957.62,-310.47 947.96,-293.15 937.75,-274.87 927.35,-254.32 918.55,-236.29"/>
<polygon fill="black" stroke="black" points="921.35,-235.03 913.84,-227.55 915.05,-238.08 921.35,-235.03"/>
</g>
<!-- nodoDron6 -->
<g id="node16" class="node">
<title>nodoDron6</title>
<ellipse fill="none" stroke="black" cx="997.96" cy="-187.2" rx="40.58" ry="40.58"/>
<text text-anchor="middle" x="997.96" y="-181.77" font-family="Times New Roman,serif" font-size="14.00">DronX: </text>
</g>
<!-- nodoNombre2&#45;&gt;nodoDron6 -->
<g id="edge13" class="edge">
<title>nodoNombre2&#45;&gt;nodoDron6</title>
<path fill="none" stroke="black" d="M997.96,-338.86C997.96,-310.81 997.96,-270.77 997.96,-239.02"/>
<polygon fill="black" stroke="black" points="1001.46,-239.17 997.96,-229.17 994.46,-239.17 1001.46,-239.17"/>
</g>
<!-- nodoDron7 -->
<g id="node18" class="node">
<title>nodoDron7</title>
<ellipse fill="none" stroke="black" cx="1096.96" cy="-187.2" rx="40.58" ry="40.58"/>
<text text-anchor="middle" x="1096.96" y="-181.77" font-family="Times New Roman,serif" font-size="14.00">DronY: </text>
</g>
<!-- nodoNombre2&#45;&gt;nodoDron7 -->
<g id="edge15" class="edge">
<title>nodoNombre2&#45;&gt;nodoDron7</title>
<path fill="none" stroke="black" d="M1017.11,-344.45C1026.8,-329.42 1038.49,-310.58 1047.96,-293.15 1058.16,-274.36 1068.34,-253.08 1076.75,-234.61"/>
<polygon fill="black" stroke="black" points="1080.31,-236.23 1081.24,-225.68 1073.93,-233.35 1080.31,-236.23"/>
</g>
<!-- nodoDron8 -->
<g id="node20" class="node">
<title>nodoDron8</title>
<ellipse fill="none" stroke="black" cx="1194.96" cy="-187.2" rx="39.59" ry="39.59"/>
<text text-anchor="middle" x="1194.96" y="-181.77" font-family="Times New Roman,serif" font-size="14.00">DronZ: </text>
</g>
<!-- nodoNombre2&#45;&gt;nodoDron8 -->
<g id="edge17" class="edge">
<title>nodoNombre2&#45;&gt;nodoDron8</title>
<path fill="none" stroke="black" d="M1031.23,-362.46C1064.33,-350.28 1114.71,-327.53 1146.96,-293.15 1162.06,-277.04 1173.05,-255.36 1180.68,-235.88"/>
<polygon fill="black" stroke="black" points="1184.28,-237.23 1184.47,-226.63 1177.71,-234.8 1184.28,-237.23"/>
</g>
<!-- nodoAltura5 -->
<g id="node15" class="node">
<title>nodoAltura5</title>
<ellipse fill="none" stroke="black" cx="895.96" cy="-22.62" rx="22.62" ry="22.62"/>
<text text-anchor="middle" x="895.96" y="-17.2" font-family="Times New Roman,serif" font-size="14.00"> &#160;1 </text>
</g>
<!-- nodoDron5&#45;&gt;nodoAltura5 -->
<g id="edge12" class="edge">
<title>nodoDron5&#45;&gt;nodoAltura5</title>
<path fill="none" stroke="black" d="M895.96,-143.91C895.96,-116.66 895.96,-81.74 895.96,-56.56"/>
<polygon fill="black" stroke="black" points="899.46,-56.73 895.96,-46.73 892.46,-56.73 899.46,-56.73"/>
</g>
<!-- nodoAltura6 -->
<g id="node17" class="node">
<title>nodoAltura6</title>
<ellipse fill="none" stroke="black" cx="997.96" cy="-22.62" rx="22.62" ry="22.62"/>
<text text-anchor="middle" x="997.96" y="-17.2" font-family="Times New Roman,serif" font-size="14.00"> &#160;1 </text>
</g>
<!-- nodoDron6&#45;&gt;nodoAltura6 -->
<g id="edge14" class="edge">
<title>nodoDron6&#45;&gt;nodoAltura6</title>
<path fill="none" stroke="black" d="M997.96,-146.43C997.96,-118.75 997.96,-82.29 997.96,-56.31"/>
<polygon fill="black" stroke="black" points="1001.46,-56.52 997.96,-46.52 994.46,-56.52 1001.46,-56.52"/>
</g>
<!-- nodoAltura7 -->
<g id="node19" class="node">
<title>nodoAltura7</title>
<ellipse fill="none" stroke="black" cx="1096.96" cy="-22.62" rx="22.62" ry="22.62"/>
<text text-anchor="middle" x="1096.96" y="-17.2" font-family="Times New Roman,serif" font-size="14.00"> &#160;1 </text>
</g>
<!-- nodoDron7&#45;&gt;nodoAltura7 -->
<g id="edge16" class="edge">
<title>nodoDron7&#45;&gt;nodoAltura7</title>
<path fill="none" stroke="black" d="M1096.96,-146.43C1096.96,-118.75 1096.96,-82.29 1096.96,-56.31"/>
<polygon fill="black" stroke="black" points="1100.46,-56.52 1096.96,-46.52 1093.46,-56.52 1100.46,-56.52"/>
</g>
<!-- nodoAltura8 -->
<g id="node21" class="node">
<title>nodoAltura8</title>
<ellipse fill="none" stroke="black" cx="1194.96" cy="-22.62" rx="22.62" ry="22.62"/>
<text text-anchor="middle" x="1194.96" y="-17.2" font-family="Times New Roman,serif" font-size="14.00"> &#160;1 </text>
</g>
<!-- nodoDron8&#45;&gt;nodoAltura8 -->
<g id="edge18" class="edge">
<title>nodoDron8&#45;&gt;nodoAltura8</title>
<path fill="none" stroke="black" d="M1194.96,-147.26C1194.96,-119.43 1194.96,-82.43 1194.96,-56.18"/>
<polygon fill="black" stroke="black" points="1198.46,-56.29 1194.96,-46.29 1191.46,-56.29 1198.46,-56.29"/>
</g>
</g>
</svg>
