<?xml version="1.0" encoding="UTF-8" standalone="no"?>
<!DOCTYPE svg PUBLIC "-//W3C//DTD SVG 1.1//EN"
 "http://www.w3.org/Graphics/SVG/1.1/DTD/svg11.dtd">
<!-- Generated by graphviz version 8.1.0 (20230707.0739)
 -->
<!-- Title: G Pages: 1 -->
<svg width="2374pt" height="596pt"
 viewBox="0.00 0.00 2374.01 595.96" xmlns="http://www.w3.org/2000/svg" xmlns:xlink="http://www.w3.org/1999/xlink">
<g id="graph0" class="graph" transform="scale(1 1) rotate(0) translate(4 591.96)">
<title>G</title>
<polygon fill="white" stroke="none" points="-4,4 -4,-591.96 2370.01,-591.96 2370.01,4 -4,4"/>
<!-- nodo0 -->
<g id="node1" class="node">
<title>nodo0</title>
<ellipse fill="none" stroke="black" cx="492.47" cy="-506.46" rx="81.5" ry="81.5"/>
<text text-anchor="middle" x="492.47" y="-501.03" font-family="Times New Roman,serif" font-size="14.00">sistemas de drones</text>
</g>
<!-- nodoNombre1 -->
<g id="node2" class="node">
<title>nodoNombre1</title>
<ellipse fill="none" stroke="black" cx="623.47" cy="-506.46" rx="31.6" ry="31.6"/>
<text text-anchor="middle" x="623.47" y="-501.03" font-family="Times New Roman,serif" font-size="14.00">SD1: </text>
</g>
<!-- nodoAltura1 -->
<g id="node3" class="node">
<title>nodoAltura1</title>
<ellipse fill="none" stroke="black" cx="184.47" cy="-309.95" rx="79.01" ry="79.01"/>
<text text-anchor="middle" x="184.47" y="-304.52" font-family="Times New Roman,serif" font-size="14.00">Altura Máxima: &#160;7 </text>
</g>
<!-- nodoNombre1&#45;&gt;nodoAltura1 -->
<g id="edge1" class="edge">
<title>nodoNombre1&#45;&gt;nodoAltura1</title>
<path fill="none" stroke="black" d="M615.84,-475.43C609.88,-458.06 599.79,-437.27 583.47,-424.96 513.48,-372.13 473.9,-412.65 389.47,-388.96 348.24,-377.39 303.68,-360.93 266.66,-346.11"/>
<polygon fill="black" stroke="black" points="268.51,-342.68 257.93,-342.18 265.89,-349.17 268.51,-342.68"/>
</g>
<!-- nodoDron1 -->
<g id="node5" class="node">
<title>nodoDron1</title>
<ellipse fill="none" stroke="black" cx="463.47" cy="-309.95" rx="64.54" ry="64.54"/>
<text text-anchor="middle" x="463.47" y="-304.52" font-family="Times New Roman,serif" font-size="14.00">Dron: &#160;DronX </text>
</g>
<!-- nodoNombre1&#45;&gt;nodoDron1 -->
<g id="edge3" class="edge">
<title>nodoNombre1&#45;&gt;nodoDron1</title>
<path fill="none" stroke="black" d="M612.04,-476.5C605.02,-460.52 595.15,-440.77 583.47,-424.96 565.76,-400.97 542.7,-377.71 521.53,-358.51"/>
<polygon fill="black" stroke="black" points="524.31,-356.41 514.52,-352.36 519.65,-361.63 524.31,-356.41"/>
</g>
<!-- nodoDron2 -->
<g id="node13" class="node">
<title>nodoDron2</title>
<ellipse fill="none" stroke="black" cx="848.47" cy="-309.95" rx="64.54" ry="64.54"/>
<text text-anchor="middle" x="848.47" y="-304.52" font-family="Times New Roman,serif" font-size="14.00">Dron: &#160;DronY </text>
</g>
<!-- nodoNombre1&#45;&gt;nodoDron2 -->
<g id="edge11" class="edge">
<title>nodoNombre1&#45;&gt;nodoDron2</title>
<path fill="none" stroke="black" d="M647.12,-485.01C681.18,-455.57 745.07,-400.33 791.78,-359.96"/>
<polygon fill="black" stroke="black" points="793.72,-362.04 799,-352.86 789.14,-356.75 793.72,-362.04"/>
</g>
<!-- nodoDron3 -->
<g id="node21" class="node">
<title>nodoDron3</title>
<ellipse fill="none" stroke="black" cx="1319.47" cy="-309.95" rx="63.54" ry="63.54"/>
<text text-anchor="middle" x="1319.47" y="-304.52" font-family="Times New Roman,serif" font-size="14.00">Dron: &#160;DronZ </text>
</g>
<!-- nodoNombre1&#45;&gt;nodoDron3 -->
<g id="edge19" class="edge">
<title>nodoNombre1&#45;&gt;nodoDron3</title>
<path fill="none" stroke="black" d="M653.82,-496.98C757.31,-468.06 1098.12,-372.81 1247.85,-330.97"/>
<polygon fill="black" stroke="black" points="1248.6,-334.11 1257.29,-328.05 1246.72,-327.37 1248.6,-334.11"/>
</g>
<!-- nodoCant1 -->
<g id="node4" class="node">
<title>nodoCant1</title>
<ellipse fill="none" stroke="black" cx="97.47" cy="-97.47" rx="97.47" ry="97.47"/>
<text text-anchor="middle" x="97.47" y="-92.05" font-family="Times New Roman,serif" font-size="14.00">Cantidad de drones: &#160;3 </text>
</g>
<!-- nodoAltura1&#45;&gt;nodoCant1 -->
<g id="edge2" class="edge">
<title>nodoAltura1&#45;&gt;nodoCant1</title>
<path fill="none" stroke="black" d="M154.53,-236.51C149.4,-224.1 143.99,-211.01 138.63,-198.04"/>
<polygon fill="black" stroke="black" points="141.59,-197.05 134.54,-189.15 135.12,-199.73 141.59,-197.05"/>
</g>
<!-- nodoAlturas1 -->
<g id="node6" class="node">
<title>nodoAlturas1</title>
<ellipse fill="none" stroke="black" cx="237.47" cy="-97.47" rx="24.62" ry="24.62"/>
<text text-anchor="middle" x="237.47" y="-92.05" font-family="Times New Roman,serif" font-size="14.00"> &#160;A </text>
</g>
<!-- nodoDron1&#45;&gt;nodoAlturas1 -->
<g id="edge4" class="edge">
<title>nodoDron1&#45;&gt;nodoAlturas1</title>
<path fill="none" stroke="black" d="M403.03,-286.19C360.86,-267.5 306.13,-237.21 271.47,-194.94 256.84,-177.1 248.3,-152.52 243.44,-132.63"/>
<polygon fill="black" stroke="black" points="246.69,-132.14 241.1,-123.14 239.86,-133.66 246.69,-132.14"/>
</g>
<!-- nodoAlturas2 -->
<g id="node7" class="node">
<title>nodoAlturas2</title>
<ellipse fill="none" stroke="black" cx="301.47" cy="-97.47" rx="21.12" ry="21.12"/>
<text text-anchor="middle" x="301.47" y="-92.05" font-family="Times New Roman,serif" font-size="14.00"> &#160;I </text>
</g>
<!-- nodoDron1&#45;&gt;nodoAlturas2 -->
<g id="edge5" class="edge">
<title>nodoDron1&#45;&gt;nodoAlturas2</title>
<path fill="none" stroke="black" d="M409.8,-273.59C382.9,-253.41 351.8,-225.97 331.47,-194.94 318.47,-175.1 310.84,-149.31 306.52,-129.38"/>
<polygon fill="black" stroke="black" points="309.79,-128.83 304.41,-119.71 302.92,-130.2 309.79,-128.83"/>
</g>
<!-- nodoAlturas3 -->
<g id="node8" class="node">
<title>nodoAlturas3</title>
<ellipse fill="none" stroke="black" cx="365.47" cy="-97.47" rx="24.62" ry="24.62"/>
<text text-anchor="middle" x="365.47" y="-92.05" font-family="Times New Roman,serif" font-size="14.00"> &#160;D </text>
</g>
<!-- nodoDron1&#45;&gt;nodoAlturas3 -->
<g id="edge6" class="edge">
<title>nodoDron1&#45;&gt;nodoAlturas3</title>
<path fill="none" stroke="black" d="M429.75,-254.67C418.98,-236.11 407.51,-214.98 398.47,-194.94 389.28,-174.57 381.13,-150.84 375.23,-132.01"/>
<polygon fill="black" stroke="black" points="378.3,-131.08 372.02,-122.55 371.61,-133.14 378.3,-131.08"/>
</g>
<!-- nodoAlturas4 -->
<g id="node9" class="node">
<title>nodoAlturas4</title>
<ellipse fill="none" stroke="black" cx="431.47" cy="-97.47" rx="23.62" ry="23.62"/>
<text text-anchor="middle" x="431.47" y="-92.05" font-family="Times New Roman,serif" font-size="14.00"> &#160;F </text>
</g>
<!-- nodoDron1&#45;&gt;nodoAlturas4 -->
<g id="edge7" class="edge">
<title>nodoDron1&#45;&gt;nodoAlturas4</title>
<path fill="none" stroke="black" d="M453.87,-245.8C448.16,-208.27 441.16,-162.19 436.52,-131.66"/>
<polygon fill="black" stroke="black" points="439.88,-131.52 434.92,-122.16 432.96,-132.58 439.88,-131.52"/>
</g>
<!-- nodoAlturas5 -->
<g id="node10" class="node">
<title>nodoAlturas5</title>
<ellipse fill="none" stroke="black" cx="494.47" cy="-97.47" rx="21.12" ry="21.12"/>
<text text-anchor="middle" x="494.47" y="-92.05" font-family="Times New Roman,serif" font-size="14.00"> &#160;I </text>
</g>
<!-- nodoDron1&#45;&gt;nodoAlturas5 -->
<g id="edge8" class="edge">
<title>nodoDron1&#45;&gt;nodoAlturas5</title>
<path fill="none" stroke="black" d="M472.77,-245.8C478.43,-207.36 485.42,-159.95 489.9,-129.47"/>
<polygon fill="black" stroke="black" points="493.5,-130.08 491.5,-119.67 486.58,-129.06 493.5,-130.08"/>
</g>
<!-- nodoAlturas6 -->
<g id="node11" class="node">
<title>nodoAlturas6</title>
<ellipse fill="none" stroke="black" cx="555.47" cy="-97.47" rx="21.62" ry="21.62"/>
<text text-anchor="middle" x="555.47" y="-92.05" font-family="Times New Roman,serif" font-size="14.00"> &#160;J </text>
</g>
<!-- nodoDron1&#45;&gt;nodoAlturas6 -->
<g id="edge9" class="edge">
<title>nodoDron1&#45;&gt;nodoAlturas6</title>
<path fill="none" stroke="black" d="M495.62,-253.68C505.6,-235.34 516.14,-214.57 524.47,-194.94 533.54,-173.55 541.5,-148.55 547.09,-129.36"/>
<polygon fill="black" stroke="black" points="550.72,-130.38 550.09,-119.81 543.99,-128.47 550.72,-130.38"/>
</g>
<!-- nodoAlturas7 -->
<g id="node12" class="node">
<title>nodoAlturas7</title>
<ellipse fill="none" stroke="black" cx="619.47" cy="-97.47" rx="24.62" ry="24.62"/>
<text text-anchor="middle" x="619.47" y="-92.05" font-family="Times New Roman,serif" font-size="14.00"> &#160;K </text>
</g>
<!-- nodoDron1&#45;&gt;nodoAlturas7 -->
<g id="edge10" class="edge">
<title>nodoDron1&#45;&gt;nodoAlturas7</title>
<path fill="none" stroke="black" d="M515.22,-270.9C539.68,-250.67 567.59,-223.99 586.47,-194.94 598.79,-176 607.03,-151.96 612.19,-132.61"/>
<polygon fill="black" stroke="black" points="615.78,-133.68 614.82,-123.13 608.99,-131.98 615.78,-133.68"/>
</g>
<!-- nodoAlturas8 -->
<g id="node14" class="node">
<title>nodoAlturas8</title>
<ellipse fill="none" stroke="black" cx="684.47" cy="-97.47" rx="22.62" ry="22.62"/>
<text text-anchor="middle" x="684.47" y="-92.05" font-family="Times New Roman,serif" font-size="14.00"> &#160;2 </text>
</g>
<!-- nodoDron2&#45;&gt;nodoAlturas8 -->
<g id="edge12" class="edge">
<title>nodoDron2&#45;&gt;nodoAlturas8</title>
<path fill="none" stroke="black" d="M794.84,-273.83C767.69,-253.63 736.17,-226.1 715.47,-194.94 702.63,-175.62 694.8,-150.61 690.21,-130.9"/>
<polygon fill="black" stroke="black" points="693.45,-130.32 687.93,-121.27 686.61,-131.78 693.45,-130.32"/>
</g>
<!-- nodoAlturas9 -->
<g id="node15" class="node">
<title>nodoAlturas9</title>
<ellipse fill="none" stroke="black" cx="749.47" cy="-97.47" rx="24.62" ry="24.62"/>
<text text-anchor="middle" x="749.47" y="-92.05" font-family="Times New Roman,serif" font-size="14.00"> &#160;C </text>
</g>
<!-- nodoDron2&#45;&gt;nodoAlturas9 -->
<g id="edge13" class="edge">
<title>nodoDron2&#45;&gt;nodoAlturas9</title>
<path fill="none" stroke="black" d="M814.18,-254.72C803.24,-236.17 791.61,-215.03 782.47,-194.94 773.21,-174.61 765.06,-150.87 759.18,-132.03"/>
<polygon fill="black" stroke="black" points="762.25,-131.11 755.98,-122.57 755.55,-133.15 762.25,-131.11"/>
</g>
<!-- nodoAlturas10 -->
<g id="node16" class="node">
<title>nodoAlturas10</title>
<ellipse fill="none" stroke="black" cx="815.47" cy="-97.47" rx="23.62" ry="23.62"/>
<text text-anchor="middle" x="815.47" y="-92.05" font-family="Times New Roman,serif" font-size="14.00"> &#160;P </text>
</g>
<!-- nodoDron2&#45;&gt;nodoAlturas10 -->
<g id="edge14" class="edge">
<title>nodoDron2&#45;&gt;nodoAlturas10</title>
<path fill="none" stroke="black" d="M838.57,-245.8C832.69,-208.27 825.46,-162.19 820.67,-131.66"/>
<polygon fill="black" stroke="black" points="824.04,-131.5 819.03,-122.16 817.12,-132.59 824.04,-131.5"/>
</g>
<!-- nodoAlturas11 -->
<g id="node17" class="node">
<title>nodoAlturas11</title>
<ellipse fill="none" stroke="black" cx="882.47" cy="-97.47" rx="25.12" ry="25.12"/>
<text text-anchor="middle" x="882.47" y="-92.05" font-family="Times New Roman,serif" font-size="14.00"> &#160;G </text>
</g>
<!-- nodoDron2&#45;&gt;nodoAlturas11 -->
<g id="edge15" class="edge">
<title>nodoDron2&#45;&gt;nodoAlturas11</title>
<path fill="none" stroke="black" d="M858.67,-245.8C864.63,-208.92 871.92,-163.77 876.85,-133.25"/>
<polygon fill="black" stroke="black" points="880.41,-134.14 878.55,-123.71 873.5,-133.03 880.41,-134.14"/>
</g>
<!-- nodoAlturas12 -->
<g id="node18" class="node">
<title>nodoAlturas12</title>
<ellipse fill="none" stroke="black" cx="949.47" cy="-97.47" rx="23.62" ry="23.62"/>
<text text-anchor="middle" x="949.47" y="-92.05" font-family="Times New Roman,serif" font-size="14.00"> &#160;L </text>
</g>
<!-- nodoDron2&#45;&gt;nodoAlturas12 -->
<g id="edge16" class="edge">
<title>nodoDron2&#45;&gt;nodoAlturas12</title>
<path fill="none" stroke="black" d="M883.53,-255.4C894.91,-236.73 907.03,-215.33 916.47,-194.94 926.05,-174.26 934.34,-149.99 940.21,-130.96"/>
<polygon fill="black" stroke="black" points="943.85,-132.02 943.38,-121.43 937.15,-130 943.85,-132.02"/>
</g>
<!-- nodoAlturas13 -->
<g id="node19" class="node">
<title>nodoAlturas13</title>
<ellipse fill="none" stroke="black" cx="1017.47" cy="-97.47" rx="26.11" ry="26.11"/>
<text text-anchor="middle" x="1017.47" y="-92.05" font-family="Times New Roman,serif" font-size="14.00"> &#160;M </text>
</g>
<!-- nodoDron2&#45;&gt;nodoAlturas13 -->
<g id="edge17" class="edge">
<title>nodoDron2&#45;&gt;nodoAlturas13</title>
<path fill="none" stroke="black" d="M902.04,-273.59C929.27,-253.32 961.04,-225.8 982.47,-194.94 995.19,-176.63 1003.83,-153.17 1009.35,-133.97"/>
<polygon fill="black" stroke="black" points="1012.95,-135.08 1012.17,-124.51 1006.19,-133.26 1012.95,-135.08"/>
</g>
<!-- nodoAlturas14 -->
<g id="node20" class="node">
<title>nodoAlturas14</title>
<ellipse fill="none" stroke="black" cx="1086.47" cy="-97.47" rx="24.62" ry="24.62"/>
<text text-anchor="middle" x="1086.47" y="-92.05" font-family="Times New Roman,serif" font-size="14.00"> &#160;N </text>
</g>
<!-- nodoDron2&#45;&gt;nodoAlturas14 -->
<g id="edge18" class="edge">
<title>nodoDron2&#45;&gt;nodoAlturas14</title>
<path fill="none" stroke="black" d="M909.36,-288.42C954.57,-270.32 1014.7,-239.78 1052.47,-194.94 1067.34,-177.29 1075.87,-152.71 1080.67,-132.77"/>
<polygon fill="black" stroke="black" points="1084.25,-133.77 1082.97,-123.25 1077.42,-132.27 1084.25,-133.77"/>
</g>
<!-- nodoAlturas15 -->
<g id="node22" class="node">
<title>nodoAlturas15</title>
<ellipse fill="none" stroke="black" cx="1153.47" cy="-97.47" rx="24.12" ry="24.12"/>
<text text-anchor="middle" x="1153.47" y="-92.05" font-family="Times New Roman,serif" font-size="14.00"> &#160;B </text>
</g>
<!-- nodoDron3&#45;&gt;nodoAlturas15 -->
<g id="edge20" class="edge">
<title>nodoDron3&#45;&gt;nodoAlturas15</title>
<path fill="none" stroke="black" d="M1266.74,-274.17C1239.5,-253.88 1207.64,-226.15 1186.47,-194.94 1173.62,-175.99 1165.33,-151.57 1160.28,-132.03"/>
<polygon fill="black" stroke="black" points="1163.47,-131.37 1157.73,-122.47 1156.67,-133.01 1163.47,-131.37"/>
</g>
<!-- nodoAlturas16 -->
<g id="node23" class="node">
<title>nodoAlturas16</title>
<ellipse fill="none" stroke="black" cx="1220.47" cy="-97.47" rx="24.62" ry="24.62"/>
<text text-anchor="middle" x="1220.47" y="-92.05" font-family="Times New Roman,serif" font-size="14.00"> &#160;C </text>
</g>
<!-- nodoDron3&#45;&gt;nodoAlturas16 -->
<g id="edge21" class="edge">
<title>nodoDron3&#45;&gt;nodoAlturas16</title>
<path fill="none" stroke="black" d="M1285.69,-255.58C1274.6,-236.83 1262.76,-215.34 1253.47,-194.94 1244.21,-174.61 1236.06,-150.87 1230.18,-132.03"/>
<polygon fill="black" stroke="black" points="1233.25,-131.11 1226.98,-122.57 1226.55,-133.15 1233.25,-131.11"/>
</g>
<!-- nodoAlturas17 -->
<g id="node24" class="node">
<title>nodoAlturas17</title>
<ellipse fill="none" stroke="black" cx="1286.47" cy="-97.47" rx="23.62" ry="23.62"/>
<text text-anchor="middle" x="1286.47" y="-92.05" font-family="Times New Roman,serif" font-size="14.00"> &#160;E </text>
</g>
<!-- nodoDron3&#45;&gt;nodoAlturas17 -->
<g id="edge22" class="edge">
<title>nodoDron3&#45;&gt;nodoAlturas17</title>
<path fill="none" stroke="black" d="M1309.75,-246.94C1303.84,-209.25 1296.53,-162.6 1291.69,-131.76"/>
<polygon fill="black" stroke="black" points="1295.04,-131.5 1290.03,-122.16 1288.12,-132.59 1295.04,-131.5"/>
</g>
<!-- nodoAlturas18 -->
<g id="node25" class="node">
<title>nodoAlturas18</title>
<ellipse fill="none" stroke="black" cx="1352.47" cy="-97.47" rx="24.62" ry="24.62"/>
<text text-anchor="middle" x="1352.47" y="-92.05" font-family="Times New Roman,serif" font-size="14.00"> &#160;H </text>
</g>
<!-- nodoDron3&#45;&gt;nodoAlturas18 -->
<g id="edge23" class="edge">
<title>nodoDron3&#45;&gt;nodoAlturas18</title>
<path fill="none" stroke="black" d="M1329.19,-246.94C1335.03,-209.68 1342.25,-163.67 1347.08,-132.83"/>
<polygon fill="black" stroke="black" points="1350.66,-133.62 1348.75,-123.2 1343.74,-132.54 1350.66,-133.62"/>
</g>
<!-- nodoAlturas19 -->
<g id="node26" class="node">
<title>nodoAlturas19</title>
<ellipse fill="none" stroke="black" cx="1420.47" cy="-97.47" rx="25.12" ry="25.12"/>
<text text-anchor="middle" x="1420.47" y="-92.05" font-family="Times New Roman,serif" font-size="14.00"> &#160;O </text>
</g>
<!-- nodoDron3&#45;&gt;nodoAlturas19 -->
<g id="edge24" class="edge">
<title>nodoDron3&#45;&gt;nodoAlturas19</title>
<path fill="none" stroke="black" d="M1353.52,-255.87C1364.82,-237.05 1376.94,-215.45 1386.47,-194.94 1395.86,-174.75 1404.2,-151.19 1410.28,-132.41"/>
<polygon fill="black" stroke="black" points="1413.9,-133.56 1413.58,-122.97 1407.23,-131.45 1413.9,-133.56"/>
</g>
<!-- nodoAlturas20 -->
<g id="node27" class="node">
<title>nodoAlturas20</title>
<ellipse fill="none" stroke="black" cx="1487.47" cy="-97.47" rx="23.62" ry="23.62"/>
<text text-anchor="middle" x="1487.47" y="-92.05" font-family="Times New Roman,serif" font-size="14.00"> &#160;P </text>
</g>
<!-- nodoDron3&#45;&gt;nodoAlturas20 -->
<g id="edge25" class="edge">
<title>nodoDron3&#45;&gt;nodoAlturas20</title>
<path fill="none" stroke="black" d="M1372.68,-274.57C1400.4,-254.3 1432.92,-226.47 1454.47,-194.94 1467.47,-175.92 1475.78,-151.3 1480.81,-131.69"/>
<polygon fill="black" stroke="black" points="1484.43,-132.63 1483.34,-122.09 1477.62,-131.01 1484.43,-132.63"/>
</g>
<!-- nodoAlturas21 -->
<g id="node28" class="node">
<title>nodoAlturas21</title>
<ellipse fill="none" stroke="black" cx="1554.47" cy="-97.47" rx="25.12" ry="25.12"/>
<text text-anchor="middle" x="1554.47" y="-92.05" font-family="Times New Roman,serif" font-size="14.00"> &#160;Q </text>
</g>
<!-- nodoDron3&#45;&gt;nodoAlturas21 -->
<g id="edge26" class="edge">
<title>nodoDron3&#45;&gt;nodoAlturas21</title>
<path fill="none" stroke="black" d="M1379.47,-288.21C1424.02,-269.99 1483.26,-239.4 1520.47,-194.94 1535.18,-177.36 1543.7,-152.98 1548.54,-133.13"/>
<polygon fill="black" stroke="black" points="1552.11,-134.16 1550.86,-123.64 1545.28,-132.64 1552.11,-134.16"/>
</g>
<!-- nodoNombre2 -->
<g id="node29" class="node">
<title>nodoNombre2</title>
<ellipse fill="none" stroke="black" cx="2009.47" cy="-506.46" rx="32.6" ry="32.6"/>
<text text-anchor="middle" x="2009.47" y="-501.03" font-family="Times New Roman,serif" font-size="14.00">SDF: </text>
</g>
<!-- nodoAltura2 -->
<g id="node30" class="node">
<title>nodoAltura2</title>
<ellipse fill="none" stroke="black" cx="1695.47" cy="-309.95" rx="79.01" ry="79.01"/>
<text text-anchor="middle" x="1695.47" y="-304.52" font-family="Times New Roman,serif" font-size="14.00">Altura Máxima: &#160;1 </text>
</g>
<!-- nodoNombre2&#45;&gt;nodoAltura2 -->
<g id="edge27" class="edge">
<title>nodoNombre2&#45;&gt;nodoAltura2</title>
<path fill="none" stroke="black" d="M1979.62,-492.95C1935.07,-473.65 1849.39,-434.11 1783.47,-388.96 1775.8,-383.7 1768.08,-377.85 1760.56,-371.78"/>
<polygon fill="black" stroke="black" points="1763.43,-368.79 1753.49,-365.12 1758.98,-374.19 1763.43,-368.79"/>
</g>
<!-- nodoDron4 -->
<g id="node32" class="node">
<title>nodoDron4</title>
<ellipse fill="none" stroke="black" cx="1859.47" cy="-309.95" rx="67.03" ry="67.03"/>
<text text-anchor="middle" x="1859.47" y="-304.52" font-family="Times New Roman,serif" font-size="14.00">Dron: &#160;DronW </text>
</g>
<!-- nodoNombre2&#45;&gt;nodoDron4 -->
<g id="edge29" class="edge">
<title>nodoNombre2&#45;&gt;nodoDron4</title>
<path fill="none" stroke="black" d="M1989.86,-480.03C1968.83,-452.76 1934.68,-408.48 1906.61,-372.07"/>
<polygon fill="black" stroke="black" points="1908.86,-370.26 1899.98,-364.48 1903.32,-374.54 1908.86,-370.26"/>
</g>
<!-- nodoDron5 -->
<g id="node34" class="node">
<title>nodoDron5</title>
<ellipse fill="none" stroke="black" cx="2009.47" cy="-309.95" rx="64.54" ry="64.54"/>
<text text-anchor="middle" x="2009.47" y="-304.52" font-family="Times New Roman,serif" font-size="14.00">Dron: &#160;DronX </text>
</g>
<!-- nodoNombre2&#45;&gt;nodoDron5 -->
<g id="edge31" class="edge">
<title>nodoNombre2&#45;&gt;nodoDron5</title>
<path fill="none" stroke="black" d="M2009.47,-473.77C2009.47,-449.89 2009.47,-416.14 2009.47,-385.55"/>
<polygon fill="black" stroke="black" points="2012.97,-385.88 2009.47,-375.88 2005.97,-385.88 2012.97,-385.88"/>
</g>
<!-- nodoDron6 -->
<g id="node36" class="node">
<title>nodoDron6</title>
<ellipse fill="none" stroke="black" cx="2156.47" cy="-309.95" rx="64.54" ry="64.54"/>
<text text-anchor="middle" x="2156.47" y="-304.52" font-family="Times New Roman,serif" font-size="14.00">Dron: &#160;DronY </text>
</g>
<!-- nodoNombre2&#45;&gt;nodoDron6 -->
<g id="edge33" class="edge">
<title>nodoNombre2&#45;&gt;nodoDron6</title>
<path fill="none" stroke="black" d="M2028.69,-480.03C2049.58,-452.38 2083.7,-407.24 2111.43,-370.55"/>
<polygon fill="black" stroke="black" points="2114.72,-372.99 2117.96,-362.9 2109.14,-368.77 2114.72,-372.99"/>
</g>
<!-- nodoDron7 -->
<g id="node38" class="node">
<title>nodoDron7</title>
<ellipse fill="none" stroke="black" cx="2302.47" cy="-309.95" rx="63.54" ry="63.54"/>
<text text-anchor="middle" x="2302.47" y="-304.52" font-family="Times New Roman,serif" font-size="14.00">Dron: &#160;DronZ </text>
</g>
<!-- nodoNombre2&#45;&gt;nodoDron7 -->
<g id="edge35" class="edge">
<title>nodoNombre2&#45;&gt;nodoDron7</title>
<path fill="none" stroke="black" d="M2039.6,-493.48C2083.99,-475.01 2168.4,-436.66 2230.47,-388.96 2238.91,-382.47 2247.2,-374.94 2254.99,-367.17"/>
<polygon fill="black" stroke="black" points="2257.14,-369.96 2261.6,-360.35 2252.12,-365.08 2257.14,-369.96"/>
</g>
<!-- nodoCant2 -->
<g id="node31" class="node">
<title>nodoCant2</title>
<ellipse fill="none" stroke="black" cx="1695.47" cy="-97.47" rx="97.47" ry="97.47"/>
<text text-anchor="middle" x="1695.47" y="-92.05" font-family="Times New Roman,serif" font-size="14.00">Cantidad de drones: &#160;4 </text>
</g>
<!-- nodoAltura2&#45;&gt;nodoCant2 -->
<g id="edge28" class="edge">
<title>nodoAltura2&#45;&gt;nodoCant2</title>
<path fill="none" stroke="black" d="M1695.47,-230.57C1695.47,-222.61 1695.47,-214.43 1695.47,-206.22"/>
<polygon fill="black" stroke="black" points="1698.97,-206.44 1695.47,-196.44 1691.97,-206.44 1698.97,-206.44"/>
</g>
<!-- nodoAlturas22 -->
<g id="node33" class="node">
<title>nodoAlturas22</title>
<ellipse fill="none" stroke="black" cx="1859.47" cy="-97.47" rx="21.12" ry="21.12"/>
<text text-anchor="middle" x="1859.47" y="-92.05" font-family="Times New Roman,serif" font-size="14.00"> &#160;I </text>
</g>
<!-- nodoDron4&#45;&gt;nodoAlturas22 -->
<g id="edge30" class="edge">
<title>nodoDron4&#45;&gt;nodoAlturas22</title>
<path fill="none" stroke="black" d="M1859.47,-242.64C1859.47,-204.98 1859.47,-159.58 1859.47,-129.92"/>
<polygon fill="black" stroke="black" points="1862.97,-130 1859.47,-120 1855.97,-130 1862.97,-130"/>
</g>
<!-- nodoAlturas23 -->
<g id="node35" class="node">
<title>nodoAlturas23</title>
<ellipse fill="none" stroke="black" cx="2009.47" cy="-97.47" rx="23.62" ry="23.62"/>
<text text-anchor="middle" x="2009.47" y="-92.05" font-family="Times New Roman,serif" font-size="14.00"> &#160;P </text>
</g>
<!-- nodoDron5&#45;&gt;nodoAlturas23 -->
<g id="edge32" class="edge">
<title>nodoDron5&#45;&gt;nodoAlturas23</title>
<path fill="none" stroke="black" d="M2009.47,-244.94C2009.47,-207.83 2009.47,-162.6 2009.47,-132.31"/>
<polygon fill="black" stroke="black" points="2012.97,-132.48 2009.47,-122.48 2005.97,-132.48 2012.97,-132.48"/>
</g>
<!-- nodoAlturas24 -->
<g id="node37" class="node">
<title>nodoAlturas24</title>
<ellipse fill="none" stroke="black" cx="2156.47" cy="-97.47" rx="24.62" ry="24.62"/>
<text text-anchor="middle" x="2156.47" y="-92.05" font-family="Times New Roman,serif" font-size="14.00"> &#160;C </text>
</g>
<!-- nodoDron6&#45;&gt;nodoAlturas24 -->
<g id="edge34" class="edge">
<title>nodoDron6&#45;&gt;nodoAlturas24</title>
<path fill="none" stroke="black" d="M2156.47,-244.94C2156.47,-208.26 2156.47,-163.65 2156.47,-133.37"/>
<polygon fill="black" stroke="black" points="2159.97,-133.51 2156.47,-123.51 2152.97,-133.51 2159.97,-133.51"/>
</g>
<!-- nodoAlturas25 -->
<g id="node39" class="node">
<title>nodoAlturas25</title>
<ellipse fill="none" stroke="black" cx="2302.47" cy="-97.47" rx="22.62" ry="22.62"/>
<text text-anchor="middle" x="2302.47" y="-92.05" font-family="Times New Roman,serif" font-size="14.00"> &#160;2 </text>
</g>
<!-- nodoDron7&#45;&gt;nodoAlturas25 -->
<g id="edge36" class="edge">
<title>nodoDron7&#45;&gt;nodoAlturas25</title>
<path fill="none" stroke="black" d="M2302.47,-246.08C2302.47,-208.38 2302.47,-161.97 2302.47,-131.37"/>
<polygon fill="black" stroke="black" points="2305.97,-131.47 2302.47,-121.47 2298.97,-131.47 2305.97,-131.47"/>
</g>
</g>
</svg>
